<?xml version="1.0" encoding="UTF-8" standalone="no"?>
<svg
   xmlns:dc="http://purl.org/dc/elements/1.1/"
   xmlns:cc="http://creativecommons.org/ns#"
   xmlns:rdf="http://www.w3.org/1999/02/22-rdf-syntax-ns#"
   xmlns:svg="http://www.w3.org/2000/svg"
   xmlns="http://www.w3.org/2000/svg"
   xmlns:sodipodi="http://sodipodi.sourceforge.net/DTD/sodipodi-0.dtd"
   xmlns:inkscape="http://www.inkscape.org/namespaces/inkscape"
   width="63"
   height="63"
   fill="none"
   version="1.1"
   id="svg8"
   sodipodi:docname="quickEmojiIcon.svg"
   inkscape:version="0.92.4 (5da689c313, 2019-01-14)">
  <metadata
     id="metadata14">
    <rdf:RDF>
      <cc:Work
         rdf:about="">
        <dc:format>image/svg+xml</dc:format>
        <dc:type
           rdf:resource="http://purl.org/dc/dcmitype/StillImage" />
      </cc:Work>
    </rdf:RDF>
  </metadata>
  <defs
     id="defs12" />
  <sodipodi:namedview
     pagecolor="#ffffff"
     bordercolor="#666666"
     borderopacity="1"
     objecttolerance="10"
     gridtolerance="10"
     guidetolerance="10"
     inkscape:pageopacity="0"
     inkscape:pageshadow="2"
     inkscape:window-width="1268"
     inkscape:window-height="976"
     id="namedview10"
     showgrid="false"
     inkscape:zoom="3.7460317"
     inkscape:cx="31.5"
     inkscape:cy="31.5"
     inkscape:window-x="2204"
     inkscape:window-y="221"
     inkscape:window-maximized="0"
     inkscape:current-layer="svg8" />
  <path
     d="M42 0H21C9.402 0 0 9.402 0 21v21c0 11.598 9.402 21 21 21h21c11.598 0 21-9.402 21-21V21C63 9.402 53.598 0 42 0z"
     fill="#41B178"
     fill-opacity=".1"
     id="path2"
     style="fill:#ff6e41;fill-opacity:0.627451" />
  <g
     style="fill:#000000"
     id="g862"
     transform="matrix(2,0,0,2,8.3008476,7.2330504)">
    <g
       id="g841">
      <rect
         id="rect839"
         width="24"
         height="24"
         x="0"
         y="0"
         style="fill:none" />
    </g>
    <g
       id="g847">
      <g
         id="g843" />
      <path
         id="path845"
         d="M 11.99,2 C 6.47,2 2,6.48 2,12 2,17.52 6.47,22 11.99,22 17.52,22 22,17.52 22,12 22,6.48 17.52,2 11.99,2 Z M 8.5,8 C 9.33,8 10,8.67 10,9.5 10,10.33 9.33,11 8.5,11 7.67,11 7,10.33 7,9.5 7,8.67 7.67,8 8.5,8 Z M 12,18 C 9.72,18 7.78,16.34 7,14 h 10 c -0.78,2.34 -2.72,4 -5,4 z m 3.5,-7 C 14.67,11 14,10.33 14,9.5 14,8.67 14.67,8 15.5,8 16.33,8 17,8.67 17,9.5 17,10.33 16.33,11 15.5,11 Z"
         inkscape:connector-curvature="0" />
    </g>
  </g>
</svg>
